<svg width="606" height="435" viewBox="0 0 606 435" fill="none" xmlns="http://www.w3.org/2000/svg">
<rect y="415" width="606" height="20" fill="black"/>
<path fill-rule="evenodd" clip-rule="evenodd" d="M80.5 323H522L602 410H4L80.5 323ZM109 339H136V352H109V339ZM120 359H93V372H120V359ZM70 379H97V392H70V379ZM385 379H358V392H385V379ZM145 339H172V352H145V339ZM156 359H129V372H156V359ZM106 379H133V392H106V379ZM421 379H394V392H421V379ZM181 339H208V352H181V339ZM192 359H165V372H192V359ZM142 379H169V392H142V379ZM457 379H430V392H457V379ZM217 339H244V352H217V339ZM228 359H201V372H228V359ZM178 379H205V392H178V379ZM493 379H466V392H493V379ZM253 339H280V352H253V339ZM264 359H237V372H264V359ZM214 379H241V392H214V379ZM349 379H250V392H349V379ZM502 379H529V392H502V379ZM316 339H289V352H316V339ZM273 359H300V372H273V359ZM352 339H325V352H352V339ZM309 359H336V372H309V359ZM388 339H361V352H388V339ZM345 359H372V372H345V359ZM424 339H397V352H424V339ZM381 359H408V372H381V359ZM460 339H433V352H460V339ZM417 359H444V372H417V359ZM496 339H469V352H496V339ZM453 359H480V372H453V359ZM516 359H489V372H516V359Z" fill="black"/>
<rect x="89" y="8" width="424" height="291" fill="#EBD78B" stroke="black" stroke-width="16"/>
</svg>
