<svg width="56" height="56" viewBox="0 0 56 56" fill="none" xmlns="http://www.w3.org/2000/svg">
<rect x="1.5" y="1.5" width="53" height="53" fill="#EBD78B" stroke="black" stroke-width="3"/>
<path d="M29.76 26.4197C30.5554 26.4197 31.2 27.136 31.2 28.0197C31.2 28.9034 30.5554 29.6197 29.76 29.6197H13.44C12.6447 29.6197 12 28.9034 12 28.0197C12 27.136 12.6447 26.4197 13.44 26.4197H29.76Z" fill="black"/>
<path fill-rule="evenodd" clip-rule="evenodd" d="M23.6686 20.0579C24.2934 19.4331 25.3065 19.4331 25.9313 20.0579L32.3313 26.458C32.9561 27.0828 32.9561 28.0959 32.3313 28.7207L25.9313 35.1207C25.3065 35.7455 24.2934 35.7455 23.6686 35.1207C23.0437 34.4959 23.0437 33.4828 23.6686 32.858L28.9372 27.5893L23.6686 22.3207C23.0437 21.6958 23.0437 20.6828 23.6686 20.0579Z" fill="black"/>
<path fill-rule="evenodd" clip-rule="evenodd" d="M37.7424 15.2601C37.0223 15.2013 36.0906 15.2 34.72 15.2H29.6C28.7163 15.2 28 14.4837 28 13.6C28 12.7164 28.7163 12 29.6 12H34.7861C36.0741 12 37.137 12 38.0029 12.0707C38.9023 12.1442 39.729 12.3019 40.5056 12.6976C41.7098 13.3112 42.6888 14.2902 43.3024 15.4945C43.6981 16.271 43.8559 17.0977 43.9293 17.9971C44 18.863 44 19.926 44 21.214V34.7861C44 36.0741 44 37.137 43.9293 38.0029C43.8559 38.9023 43.6981 39.729 43.3024 40.5057C42.6888 41.7098 41.7098 42.6889 40.5056 43.3025C39.729 43.6982 38.9023 43.8559 38.0029 43.9294C37.137 44.0001 36.0741 44.0001 34.7861 44.0001H29.6C28.7163 44.0001 28 43.2838 28 42.4001C28 41.5164 28.7163 40.8001 29.6 40.8001H34.72C36.0906 40.8001 37.0223 40.7988 37.7424 40.7399C38.4439 40.6826 38.8026 40.5788 39.0528 40.4513C39.6549 40.1445 40.1445 39.6549 40.4512 39.0529C40.5788 38.8026 40.6826 38.4439 40.7399 37.7425C40.7988 37.0223 40.8 36.0906 40.8 34.7201V21.28C40.8 19.9095 40.7988 18.9778 40.7399 18.2577C40.6826 17.5562 40.5788 17.1975 40.4512 16.9472C40.1445 16.3451 39.6549 15.8556 39.0528 15.5488C38.8026 15.4213 38.4439 15.3174 37.7424 15.2601Z" fill="black"/>
</svg>
